<svg xmlns="http://www.w3.org/2000/svg" width="12" height="24" fill="none"><g clip-path="url(#a)"><path fill="#000" fill-opacity=".72" d="M11 18v-8H7.5A1.48 1.48 0 0 1 6 8.5V5H2c-.562 0-1 .469-1 1v12c0 .563.438 1 1 1h8c.531 0 1-.437 1-1m-.031-9c-.031-.062-.063-.156-.125-.219L7.219 5.156c-.063-.062-.157-.093-.219-.125V8.5c0 .281.219.5.5.5zM0 6c0-1.094.875-2 2-2h4.875c.375 0 .781.188 1.063.469l3.593 3.593c.281.282.469.688.469 1.063V18c0 1.125-.906 2-2 2H2c-1.125 0-2-.875-2-2z"/></g><defs><clipPath id="a"><path fill="#fff" d="M0 0h12v24H0z"/></clipPath></defs></svg>